<svg width="23" height="25" viewBox="0 0 23 25" fill="none" xmlns="http://www.w3.org/2000/svg">
<path d="M11.5 1.5625C12.3499 1.5625 13.1649 1.89174 13.7659 2.47779C14.3668 3.06384 14.7044 3.8587 14.7044 4.6875V7.8125H8.29556V4.6875C8.29556 3.8587 8.63317 3.06384 9.23412 2.47779C9.83506 1.89174 10.6501 1.5625 11.5 1.5625ZM16.3067 7.8125V4.6875C16.3067 3.4443 15.8003 2.25201 14.8988 1.37294C13.9974 0.49386 12.7748 0 11.5 0C10.2252 0 9.0026 0.49386 8.10117 1.37294C7.19975 2.25201 6.69333 3.4443 6.69333 4.6875V7.8125H4.06729C3.49189 7.81262 2.93563 8.01406 2.49961 8.38021C2.06359 8.74636 1.77674 9.25291 1.6912 9.80781L0.044112 20.5156C-0.0411458 21.0712 -0.00251341 21.6382 0.157374 22.1779C0.317261 22.7176 0.59464 23.2174 0.97059 23.643C1.34654 24.0687 1.81221 24.4103 2.33584 24.6444C2.85947 24.8786 3.42874 24.9999 4.00481 25H18.9952C19.5713 24.9999 20.1405 24.8786 20.6642 24.6444C21.1878 24.4103 21.6535 24.0687 22.0294 23.643C22.4054 23.2174 22.6827 22.7176 22.8426 22.1779C23.0025 21.6382 23.0411 21.0712 22.9559 20.5156L21.3088 9.80781C21.2233 9.25318 20.9367 8.74684 20.501 8.38072C20.0653 8.01461 19.5094 7.813 18.9343 7.8125H16.3067ZM14.7044 9.375V11.7188C14.7044 11.926 14.7888 12.1247 14.9391 12.2712C15.0893 12.4177 15.2931 12.5 15.5056 12.5C15.718 12.5 15.9218 12.4177 16.072 12.2712C16.2223 12.1247 16.3067 11.926 16.3067 11.7188V9.375H18.9327C19.1245 9.37519 19.3099 9.44246 19.4551 9.5646C19.6003 9.68675 19.6958 9.85565 19.7242 10.0406L21.3713 20.7453C21.4227 21.0788 21.3997 21.4191 21.3039 21.7431C21.2081 22.0671 21.0418 22.3671 20.8162 22.6227C20.5906 22.8783 20.3112 23.0834 19.9969 23.224C19.6826 23.3646 19.341 23.4374 18.9952 23.4375H4.00481C3.65904 23.4374 3.31735 23.3646 3.00309 23.224C2.68882 23.0834 2.40936 22.8783 2.1838 22.6227C1.95824 22.3671 1.79188 22.0671 1.69608 21.7431C1.60029 21.4191 1.57731 21.0788 1.62871 20.7453L3.27579 10.0406C3.30414 9.85592 3.39939 9.68722 3.5443 9.56511C3.68921 9.443 3.87418 9.37556 4.06569 9.375H6.69333V11.7188C6.69333 11.926 6.77774 12.1247 6.92797 12.2712C7.07821 12.4177 7.28198 12.5 7.49444 12.5C7.70691 12.5 7.91068 12.4177 8.06092 12.2712C8.21115 12.1247 8.29556 11.926 8.29556 11.7188V9.375H14.7044Z" fill="#898A8D"/>
</svg>
