<svg width="25" height="25" viewBox="0 0 25 25" fill="none" xmlns="http://www.w3.org/2000/svg">
<path d="M13.1808 0.262294C13.0915 0.17915 12.9853 0.113185 12.8685 0.0681764C12.7517 0.0231678 12.6265 0 12.5 0C12.3735 0 12.2483 0.0231678 12.1315 0.0681764C12.0147 0.113185 11.9085 0.17915 11.8192 0.262294L0.280771 10.9759C0.191537 11.059 0.120809 11.1575 0.072633 11.266C0.0244567 11.3745 -0.000224134 11.4907 1.53364e-06 11.608V24.1072C1.53364e-06 24.344 0.101306 24.5711 0.28163 24.7385C0.461953 24.9059 0.706524 25 0.96154 25H9.61539C9.8704 25 10.115 24.9059 10.2953 24.7385C10.4756 24.5711 10.5769 24.344 10.5769 24.1072V16.9648H14.4231V24.1072C14.4231 24.344 14.5244 24.5711 14.7047 24.7385C14.885 24.9059 15.1296 25 15.3846 25H24.0385C24.2935 25 24.538 24.9059 24.7184 24.7385C24.8987 24.5711 25 24.344 25 24.1072V11.608C25.0002 11.4907 24.9755 11.3745 24.9274 11.266C24.8792 11.1575 24.8085 11.059 24.7192 10.9759L22.1154 8.55998V2.68C22.1154 2.44321 22.0141 2.21612 21.8338 2.04869C21.6534 1.88126 21.4089 1.7872 21.1538 1.7872H19.2308C18.9758 1.7872 18.7312 1.88126 18.5509 2.04869C18.3705 2.21612 18.2692 2.44321 18.2692 2.68V4.98878L13.1808 0.262294ZM1.92308 23.2144V11.9776L12.5 2.15682L23.0769 11.9776V23.2144H16.3462V16.072C16.3462 15.8352 16.2449 15.6081 16.0645 15.4407C15.8842 15.2733 15.6396 15.1792 15.3846 15.1792H9.61539C9.36037 15.1792 9.1158 15.2733 8.93548 15.4407C8.75515 15.6081 8.65385 15.8352 8.65385 16.072V23.2144H1.92308Z" fill="#898A8D"/>
</svg>
